<svg xmlns="http://www.w3.org/2000/svg"
shape-rendering="geometricPrecision"
width="4000" height="4000" viewBox="0 0 603 603">
  <metadata>null</metadata>

<path d="
M 27.166 451.341
C 28.505 450.932 29.873 450.765 31.229 450.442
C 32.163 451.154 32.545 452.372 33.62 453.055
C 35.796 454.438 39.449 454.234 41.881 453.824
C 44.1 453.45 47.412 451.747 45.66 448.997
C 44.537 447.233 41.685 446.906 39.802 446.558
C 34.6 445.598 27.949 444.43 28.127 437.767
C 28.161 436.496 28.324 435.221 29.003 434.118
C 32.339 428.7 43.371 428.585 47.959 432.334
C 48.822 433.039 51.179 436.171 49.644 437.212
C 48.869 437.737 47.469 437.61 46.59 437.628
C 45.255 436.817 44.925 435.342 43.19 434.764
C 40.792 433.964 37.473 433.862 35.148 434.927
C 33.447 435.707 32.525 437.39 33.574 439.142
C 34.691 441.008 37.319 441.331 39.251 441.719
C 44.731 442.822 53.14 444.729 51.178 452.307
C 50.236 455.946 46.363 457.675 42.953 458.14
C 36.699 458.993 29.124 458.29 27.166 451.341 Z"
opacity="1" fill="rgb(4,4,4)" fill-rule="evenodd" />
<path d="
M 32.482 312.109
C 32.484 311.913 32.485 311.717 32.486 311.522
C 34.349 310.764 36.997 311.216 39.007 311.208
C 43.508 311.191 48.008 311.193 52.509 311.189
C 55.676 311.186 58.843 311.183 62.01 311.17
C 75.376 311.118 95.621 309.714 100.886 325.728
C 101.609 327.927 101.869 330.251 101.907 332.556
C 101.956 335.626 101.649 338.784 100.56 341.675
C 99.324 344.959 97.143 347.893 94.257 349.92
C 92.981 350.815 90.815 351.388 89.856 352.517
C 94.714 354.573 99.291 356.169 102.586 360.622
C 107.786 367.649 107.903 379.705 103.261 387.082
C 101.047 390.601 97.895 393.197 94.194 395.045
C 86.027 399.121 76.867 398.49 68.009 398.455
C 56.198 398.408 44.301 398.838 32.503 398.438
C 32.039 393.525 32.41 388.433 32.421 383.499
C 32.441 374.665 32.426 365.831 32.438 356.997
C 32.45 346.997 32.416 336.998 32.426 326.998
C 32.43 322.077 32.105 317.013 32.482 312.109 Z
M 50.987 329.115
C 50.453 334.607 50.864 340.395 51.051 345.898
C 55.201 346.698 60.053 346.032 64.284 346.022
C 67.569 346.015 70.875 346.131 74.147 345.777
C 76.643 345.506 79.236 344.812 81.152 343.098
C 84.405 340.187 84.564 333.799 81.37 330.797
C 79.168 328.727 76.4 328.311 73.526 328.087
C 68.535 327.697 63.502 327.762 58.495 327.741
C 56.665 327.734 54.831 327.708 53.001 327.738
C 52.287 327.75 51.564 327.65 51.04 328.167
C 51.046 328.88 51.077 328.565 50.987 329.115 Z
M 50.785 362.345
C 50.541 368.969 51.132 375.647 50.796 382.26
C 54.097 382.862 58.135 382.239 61.508 382.239
C 66.058 382.239 70.631 382.352 75.177 382.127
C 77.68 382.002 80.331 381.959 82.679 380.976
C 88.218 378.656 90.117 369.954 85.396 365.77
C 81.815 362.595 76.742 362.48 72.224 362.402
C 65.08 362.278 57.923 362.212 50.785 362.345 Z"
opacity="1" fill="rgb(0,0,1)" fill-rule="evenodd" />
<path d="
M 56.476 440.596
C 58.507 430.083 72.79 426.826 80.767 432.929
C 85.35 436.436 86.443 442.585 85.428 448.019
C 84.906 450.81 83.853 453.295 81.667 455.194
C 76.831 459.392 66.971 459.756 61.742 456.119
C 56.924 452.767 55.406 446.136 56.476 440.596 Z
M 61.437 441.588
C 60.776 445.158 61.593 449.737 64.596 452.064
C 70.043 456.287 79.031 453.803 80.441 446.912
C 81.151 443.44 80.657 439.131 77.721 436.768
C 72.506 432.57 62.75 434.486 61.437 441.588 Z"
opacity="1" fill="rgb(3,3,3)" fill-rule="evenodd" />
<path d="
M 92.663 430.685
C 94.17 430.697 96.634 430.178 98.005 430.791
C 97.393 438.054 97.462 446.129 98.071 453.388
C 102.287 453.251 106.513 453.484 110.738 453.24
C 111.096 454.764 110.588 456.401 110.84 457.915
C 104.871 458.197 98.835 457.655 92.878 458.016
C 91.941 455.72 92.655 451.98 92.654 449.505
C 92.651 443.271 92.23 436.903 92.663 430.685 Z"
opacity="1" fill="rgb(3,3,4)" fill-rule="evenodd" />
<path d="
M 116.26 430.74
C 117.933 430.781 119.623 430.77 121.296 430.728
C 121.516 435.038 121.247 439.409 121.277 443.727
C 121.292 446.011 121.137 448.753 122.259 450.831
C 124.693 455.339 132.996 454.911 135.339 450.588
C 136.319 448.78 135.955 446.237 135.951 444.261
C 135.941 439.819 136.382 435.14 135.946 430.728
C 137.647 430.54 139.293 430.552 141.001 430.625
C 141.272 435.437 141.087 440.327 141.046 445.161
C 141.022 447.929 141.173 451.034 139.794 453.523
C 135.805 460.725 121.513 460.216 117.635 453.226
C 116.281 450.785 116.425 447.696 116.398 444.984
C 116.351 440.237 116.387 435.485 116.26 430.74 Z"
opacity="1" fill="rgb(2,2,2)" fill-rule="evenodd" />
<path d="
M 117.978 348.6
C 118.951 342.19 120.57 336.13 123.948 330.523
C 134.016 313.812 154.727 307.34 173.308 310.986
C 181.444 312.583 189.094 316.038 195.252 321.675
C 196.776 323.069 199.903 325.345 200.501 327.369
C 199.659 328.538 198.338 329.459 197.296 330.46
C 195.063 332.605 192.879 334.802 190.7 337.001
C 190.166 337.54 188.44 339.916 187.735 339.826
C 184.552 335.498 179.79 332.021 174.853 329.966
C 170.747 328.257 166.352 327.345 161.892 327.459
C 157.837 327.564 153.733 328.386 150.111 330.265
C 134.597 338.313 131.941 361.876 143.266 374.524
C 147.564 379.324 154.106 382.035 160.454 382.467
C 164.746 382.76 168.863 382.353 172.953 380.958
C 179.222 378.82 184.05 374.518 188.158 369.461
C 189.113 369.576 190.375 371.364 191.095 372.048
C 193.416 374.254 195.687 376.511 198.107 378.609
C 198.923 379.316 199.758 379.995 200.604 380.664
C 200.718 380.753 201.392 381.165 201.354 381.344
C 199.153 384.748 195.639 387.8 192.45 390.254
C 174.936 403.73 146.587 403.021 130.352 387.703
C 119.857 377.802 116.314 362.579 117.978 348.6 Z"
opacity="1" fill="rgb(0,0,1)" fill-rule="evenodd" />
<path d="
M 147.437 430.856
C 148.994 429.999 152.223 430.669 154.006 430.67
C 159.521 430.673 165.039 430.514 170.551 430.641
C 170.523 432.006 170.927 433.971 170.391 435.26
C 167.389 435.216 164.371 435.184 161.371 435.282
C 161.366 440.577 161.322 445.879 161.331 451.179
C 161.334 453.295 161.048 455.621 161.293 457.71
C 160.144 458.183 157.43 457.932 156.184 457.66
C 156.322 450.246 156.434 442.703 156.061 435.298
C 153.249 435.238 150.418 435.172 147.605 435.252
C 147.365 433.801 147.46 432.321 147.437 430.856 Z"
opacity="1" fill="rgb(2,2,3)" fill-rule="evenodd" />
<path d="
M 155.309 197.366
C 160.945 197.301 166.586 197.27 172.225 197.312
C 172.88 201.442 172.303 206.18 172.253 210.365
C 170.856 210.43 168.435 210.784 167.148 210.318
C 167.094 207.68 167.2 204.999 167.051 202.367
C 165.428 202.383 161.629 201.512 160.56 202.783
C 160.378 205.344 160.443 207.905 160.395 210.471
C 158.809 210.603 157.1 210.427 155.502 210.392
C 155.094 209.118 155.302 207.458 155.288 206.118
C 155.258 203.201 155.188 200.28 155.309 197.366 Z"
opacity="1" fill="rgb(4,4,4)" fill-rule="evenodd" />
<path d="
M 159.494 127.12
C 159.72 123.12 161.139 119.084 162.725 115.447
C 168.903 101.282 182.053 92.427 197.095 90.321
C 197.225 92.137 197.14 93.943 197.128 95.761
C 185.095 96.062 173.437 105.613 168.235 115.955
C 166.909 118.59 165.925 121.335 165.218 124.193
C 164.991 125.107 165.086 127.335 164.51 127.981
C 163.05 127.832 160.718 128.249 159.435 127.625
C 159.455 127.456 159.475 127.288 159.494 127.12 Z"
opacity="1" fill="rgb(5,5,4)" fill-rule="evenodd" />
<path d="
M 159.595 137.689
C 161.233 137.695 163.16 137.188 164.749 137.652
C 165.28 154.516 180.377 166.755 195.986 168.969
C 195.861 170.564 195.432 172.602 195.746 174.178
C 192.35 174.461 188.01 172.975 184.881 171.773
C 173.573 167.427 164.797 157.951 161.15 146.374
C 160.26 143.551 159.974 140.606 159.595 137.689 Z"
opacity="1" fill="rgb(3,3,3)" fill-rule="evenodd" />
<path d="
M 162.296 244.398
C 163.498 243.579 165.02 242.456 166.455 242.136
C 168.103 245.676 169.667 249.205 171.941 252.405
C 177.441 260.148 187.372 267.162 197.179 267.252
C 197.71 268.859 197.142 271.035 197.169 272.724
C 193.917 272.234 190.709 271.857 187.58 270.745
C 179.813 267.987 172.929 262.674 168.079 256.03
C 166.687 254.122 165.331 252.115 164.292 249.988
C 163.51 248.387 163.002 246.51 162.029 245.03
C 162.118 244.819 162.207 244.609 162.296 244.398 Z"
opacity="1" fill="rgb(3,3,2)" fill-rule="evenodd" />
<path d="
M 175.099 506.409
C 176.375 506.098 177.746 505.226 179.069 505.282
C 181.181 508.416 185.282 508.784 188.711 507.902
C 190.116 507.541 192.103 506.757 192.042 504.995
C 191.959 502.622 188.542 502.282 186.786 501.948
C 181.762 500.99 174.099 498.944 176.259 492.043
C 177.981 486.545 186.269 486.224 190.841 487.577
C 193.073 488.238 195.742 489.953 195.865 492.532
C 195.15 493.406 193.976 493.689 192.944 494.034
C 192.126 493.695 191.607 492.683 190.88 492.142
C 189.215 490.901 186.618 490.574 184.612 490.904
C 182.415 491.265 178.64 493.104 181.214 495.685
C 185.243 499.722 195.489 496.317 196.76 503.955
C 196.895 504.768 196.841 505.61 196.666 506.41
C 195.982 509.536 192.956 511.019 190.11 511.628
C 184.841 512.755 177.132 512.509 175.099 506.409 Z"
opacity="1" fill="rgb(4,4,3)" fill-rule="evenodd" />
<path d="
M 176.12 129.821
C 179.115 128.107 182.61 127.085 185.728 125.566
C 187.044 124.924 189.148 123.474 190.625 123.66
C 190.771 125.425 190.72 127.204 190.845 128.976
C 190.428 129.506 188.711 129.646 188.047 129.901
C 185.704 130.799 183.487 131.884 181.261 133.031
C 181.33 133.699 182.713 134.373 183.287 134.735
C 184.94 135.776 187.025 136.348 188.832 137.073
C 189.475 137.33 190.394 137.45 190.881 137.951
C 190.469 139.987 190.143 142.023 189.816 144.074
C 189.03 143.019 187.339 142.361 186.202 141.747
C 183.021 140.031 179.737 138.679 176.4 137.335
C 175.759 135.226 176.098 132.043 176.12 129.821 Z"
opacity="1" fill="rgb(4,5,3)" fill-rule="evenodd" />
<path d="
M 176.526 431.606
C 176.517 431.397 176.508 431.188 176.5 430.979
C 178.121 430.489 179.952 430.793 181.636 430.787
C 182.271 433.227 181.711 436.47 181.706 438.995
C 181.696 445.114 181.566 451.258 181.785 457.373
C 180.678 458.033 177.952 457.588 176.666 457.621
C 176.004 449.041 176.651 440.214 176.526 431.606 Z"
opacity="1" fill="rgb(4,4,4)" fill-rule="evenodd" />
<path d="
M 188.963 442.104
C 190.236 430.894 204.924 426.268 213.579 432.697
C 217.856 435.874 219.212 441.653 218.653 446.721
C 217.386 458.208 201.77 462.062 193.427 455.393
C 189.587 452.325 188.431 446.781 188.963 442.104 Z
M 193.994 443.112
C 193.821 445.984 194.307 449.173 196.412 451.295
C 199.95 454.861 207.232 455.007 210.898 451.529
C 212.749 449.774 213.463 447.31 213.601 444.827
C 213.75 442.132 213.115 438.793 210.973 436.937
C 205.276 432.001 194.473 435.152 193.994 443.112 Z"
opacity="1" fill="rgb(3,3,3)" fill-rule="evenodd" />
<path d="
M 190.754 228.357
C 194.064 228.34 197.491 228.536 200.788 228.248
C 200.447 225.082 200.606 221.54 200.757 218.357
C 202.514 218.266 204.272 218.139 206.034 218.165
C 205.96 221.254 205.613 225.07 206.207 228.099
C 209.326 227.972 212.506 228.128 215.63 228.161
C 215.692 229.86 215.387 231.801 215.691 233.453
C 212.685 233.819 209.476 233.287 206.433 233.474
C 206.056 234.061 206.195 234.903 206.193 235.588
C 206.186 237.385 206.082 239.191 206.14 240.987
C 206.16 241.607 206.375 242.851 206.03 243.385
C 204.322 243.327 202.587 243.38 200.882 243.498
C 200.209 240.521 200.7 236.633 200.746 233.575
C 197.505 233.432 194.222 233.279 190.976 233.397
C 190.332 232.429 190.633 229.531 190.754 228.357 Z"
opacity="1" fill="rgb(2,2,2)" fill-rule="evenodd" />
<path d="
M 193.462 151.68
C 197.691 139.77 201.416 127.491 204.881 115.333
C 205.67 114.677 208.616 115.286 209.726 115.357
C 209.823 116.32 209.072 117.575 208.803 118.506
C 208.176 120.671 207.428 122.827 206.847 125.001
C 204.405 134.136 201.233 143.115 198.445 152.151
C 196.746 152.188 195.07 151.86 193.358 152.089
C 193.392 151.953 193.427 151.816 193.462 151.68 Z"
opacity="1" fill="rgb(7,7,6)" fill-rule="evenodd" />
<path d="
M 203.502 488.611
C 203.522 488.136 203.504 488.451 203.581 487.669
C 205.129 487.736 206.688 487.745 208.24 487.764
C 209.186 495.558 207.508 503.644 208.384 511.453
C 206.809 511.54 205.219 511.346 203.639 511.483
C 203.26 511.082 203.414 510.178 203.42 509.644
C 203.436 508.246 203.452 506.848 203.459 505.449
C 203.488 499.841 203.715 494.216 203.502 488.611 Z"
opacity="1" fill="rgb(4,4,5)" fill-rule="evenodd" />
<path d="
M 208.501 91.607
C 208.504 91.281 208.508 90.955 208.512 90.629
C 223.024 92.677 235.432 101.103 241.881 114.465
C 243.429 117.674 245.716 122.623 245.38 126.279
C 243.651 126.4 241.981 126.891 240.233 126.829
C 239.094 123.163 238.567 119.62 236.772 116.133
C 231.127 105.169 220.679 97.884 208.673 95.601
C 208.186 94.473 208.39 92.818 208.501 91.607 Z"
opacity="1" fill="rgb(4,4,4)" fill-rule="evenodd" />
<path d="
M 208.717 189.712
C 212.682 190.293 216.598 190.895 220.336 192.431
C 234.051 198.067 244.251 210.477 245.717 225.366
C 244.216 225.039 241.914 225.373 240.379 225.563
C 239.821 224.203 239.929 222.644 239.608 221.218
C 239.15 219.191 238.421 217.218 237.493 215.362
C 233.392 207.16 226.454 200.498 217.889 197.111
C 214.916 195.935 211.804 195.464 208.706 194.796
C 208.634 193.18 208.392 191.295 208.717 189.712 Z"
opacity="1" fill="rgb(4,4,4)" fill-rule="evenodd" />
<path d="
M 208.842 267.819
C 213.184 266.697 217.451 265.865 221.413 263.633
C 231.702 257.839 239.362 246.665 240.223 234.763
C 241.927 234.836 243.659 234.695 245.365 234.66
C 245.8 235.401 245.145 237.326 244.965 238.136
C 244.246 241.364 243.541 244.38 242.302 247.462
C 236.814 261.111 223.693 271.71 208.887 272.963
C 208.214 271.947 208.829 269.075 208.842 267.819 Z"
opacity="1" fill="rgb(3,4,3)" fill-rule="evenodd" />
<path d="
M 214.922 127.57
C 215.317 126.303 215.513 124.987 215.904 123.715
C 217.005 123.468 218.632 124.673 219.618 125.168
C 222.704 126.716 226.887 127.495 229.584 129.605
C 229.822 131.654 230.174 134.714 229.771 136.729
C 226.041 137.981 222.308 140.223 218.903 142.185
C 217.753 142.848 216.23 144.511 215.004 144.841
C 215.239 142.829 213.993 140.161 214.74 138.322
C 217.174 136.92 219.981 136.164 222.479 134.875
C 223.116 134.547 224.69 133.989 224.863 133.26
C 222.176 131.234 217.892 129.759 214.627 129.068
C 214.704 128.561 214.81 128.069 214.922 127.57 Z"
opacity="1" fill="rgb(7,7,7)" fill-rule="evenodd" />
<path d="
M 216.729 487.779
C 218.416 487.836 221.106 487.173 222.623 487.83
C 224.007 490.559 226.129 493.094 227.79 495.678
C 229.897 498.957 231.846 502.756 234.475 505.647
C 235.083 504.034 234.611 501.718 234.629 500
C 234.672 495.901 234.545 491.779 234.685 487.685
C 236.222 487.69 237.762 487.751 239.298 487.717
C 239.694 492.91 239.329 498.28 239.359 503.493
C 239.373 505.971 239.969 509.035 239.47 511.443
C 237.43 511.537 235.324 511.725 233.284 511.578
C 232.048 510.632 231.317 508.618 230.46 507.318
C 228.431 504.242 226.163 501.292 224.239 498.153
C 223.564 497.053 222.886 495.965 222.093 494.948
C 221.961 494.778 221.309 493.885 221.3 493.889
C 220.996 494.035 221.194 494.557 221.183 494.895
C 221.15 495.912 221.271 496.971 221.269 497.997
C 221.264 501.163 221.258 504.327 221.294 507.493
C 221.307 508.583 221.72 510.521 221.258 511.501
C 219.81 511.589 218.309 511.442 216.853 511.452
C 216.127 509.162 216.709 505.912 216.709 503.506
C 216.71 498.318 216.229 492.943 216.729 487.779 Z"
opacity="1" fill="rgb(4,5,4)" fill-rule="evenodd" />
<path d="
M 221.855 167.968
C 221.908 167.791 221.961 167.614 222.013 167.437
C 224.966 167.598 227.904 167.413 230.861 167.34
C 231.179 167.332 233.873 167.3 233.872 167.156
C 231.196 164.521 228.636 161.712 225.531 159.563
C 226.195 158.11 228.362 156.373 229.707 155.519
C 232.817 156.86 234.126 161.562 237.247 163.014
C 237.636 158.975 237.615 154.831 237.811 150.772
C 238.032 150.315 238.805 150.587 239.254 150.576
C 240.465 150.548 241.667 150.696 242.877 150.673
C 242.447 153.83 242.831 157.301 242.821 160.494
C 242.809 164.354 242.41 168.407 242.702 172.242
C 240.207 172.592 237.575 172.352 235.058 172.459
C 230.647 172.647 226.228 172.789 221.807 172.726
C 221.9 171.145 221.84 169.551 221.855 167.968 Z"
opacity="1" fill="rgb(2,2,2)" fill-rule="evenodd" />
<path d="
M 225.953 430.821
C 227.931 430.177 230.54 430.706 232.607 430.667
C 234.453 432.279 235.598 435.216 236.915 437.282
C 239.869 441.913 242.646 446.712 245.837 451.179
C 246.047 451.38 246.096 449.286 246.103 448.991
C 246.137 447.495 246.132 445.996 246.153 444.5
C 246.215 439.936 246.414 435.338 246.233 430.777
C 247.895 430.736 249.576 430.816 251.233 430.704
C 251.267 439.668 251.37 448.659 251.333 457.625
C 248.983 457.746 246.563 457.813 244.218 457.646
C 243.007 456.774 242.256 454.585 241.46 453.305
C 239.476 450.113 237.501 446.911 235.383 443.805
C 234.405 442.371 233.521 440.875 232.588 439.413
C 232.443 439.187 231.14 437.2 231.077 437.324
C 230.53 438.407 231.233 441.377 231.215 442.652
C 231.168 445.935 231.229 449.215 231.257 452.498
C 231.272 454.176 231.017 456.147 231.333 457.783
C 229.747 457.612 228.025 457.729 226.434 457.846
C 226.047 457.237 226.209 456.231 226.218 455.513
C 226.239 453.843 226.207 452.172 226.203 450.502
C 226.187 443.939 226.112 437.376 225.953 430.821 Z"
opacity="1" fill="rgb(3,4,3)" fill-rule="evenodd" />
<path d="
M 236.194 311.227
C 252.459 311.211 268.737 311.103 285.008 311.067
C 293.031 311.05 301.453 311.887 309.429 311.062
C 310.07 312.287 309.608 314.621 309.61 315.994
C 309.616 319.804 308.921 324.462 309.676 328.178
C 300.472 327.477 291.028 327.662 281.805 327.829
C 281.112 329.196 281.385 331.295 281.364 332.826
C 281.309 336.751 281.394 340.677 281.407 344.602
C 281.447 357.235 281.41 369.868 281.412 382.501
C 281.413 386.167 281.405 389.834 281.4 393.5
C 281.398 394.893 281.858 396.981 281.376 398.273
C 275.481 398.376 269.429 398.625 263.544 398.296
C 263.167 392.563 263.397 386.753 263.378 381.004
C 263.341 369.67 263.367 358.337 263.367 347.004
C 263.367 342.431 263.419 337.859 263.416 333.287
C 263.415 331.917 263.881 329.318 263.144 328.16
C 257.443 327.814 251.717 327.899 246.006 327.908
C 242.852 327.913 239.562 327.642 236.425 327.973
C 235.703 327.38 236.113 324.919 236.114 324.002
C 236.122 319.848 235.585 315.332 236.194 311.227 Z"
opacity="1" fill="rgb(0,0,1)" fill-rule="evenodd" />
<path d="
M 245.909 496.076
C 247.6 488.853 255.004 485.934 261.843 487.381
C 264.342 487.91 266.638 489.128 268.223 491.165
C 268.666 491.734 269.655 492.903 269.294 493.641
C 268.196 494.008 267.012 494.501 265.978 495.008
C 264.371 493.318 263.477 491.938 261.017 491.414
C 259.471 491.084 257.737 491.037 256.184 491.37
C 250.648 492.559 248.472 499.685 251.264 504.331
C 252.918 507.084 255.912 508.353 259.053 508.226
C 260.417 508.171 261.83 507.906 263.04 507.248
C 264.377 506.522 265.48 505.368 266.212 504.044
C 267.446 504.605 268.673 505.07 269.827 505.801
C 269.903 506.795 268.681 508.102 268.035 508.738
C 265.738 511.001 261.942 512.165 258.786 512.251
C 249.621 512.5 243.979 504.814 245.909 496.076 Z"
opacity="1" fill="rgb(5,4,4)" fill-rule="evenodd" />
<path d="
M 257.785 451.418
C 259.058 450.838 260.289 450.577 261.628 450.218
C 263.756 454.012 268.297 454.516 272.39 453.831
C 274.514 453.476 277.283 452.193 276.892 449.563
C 276.532 447.149 272.416 446.691 270.549 446.344
C 266.033 445.505 259.502 444.984 258.708 439.219
C 258.583 438.312 258.616 437.353 258.779 436.453
C 259.477 432.587 263.442 430.676 266.953 430.19
C 272.755 429.389 280.121 430.274 281.303 437.249
C 279.859 437.371 278.485 437.59 277.063 437.88
C 276.639 437.116 276.562 436.259 275.889 435.629
C 273.977 433.838 270.251 434.057 267.851 434.399
C 265.881 434.68 263.451 435.643 263.781 438.036
C 264.136 440.612 267.415 441.045 269.452 441.475
C 274.946 442.636 283.723 444.025 282.04 451.738
C 281.27 455.265 278.069 457.147 274.759 457.854
C 268.871 459.111 259.319 458.832 257.785 451.418 Z"
opacity="1" fill="rgb(5,5,4)" fill-rule="evenodd" />
<path d="
M 259.509 95.615
C 259.567 94.969 259.612 94.326 259.685 93.682
C 260.507 92.85 263.097 93.333 264.198 93.325
C 268.302 93.295 272.404 93.256 276.508 93.245
C 293.341 93.2 310.175 93.191 327.008 93.204
C 331.671 93.207 336.341 93.285 341.003 93.184
C 341.919 93.164 345.092 92.635 345.607 93.295
C 346.527 102.699 345.747 112.544 345.75 121.997
C 345.754 138.606 345.988 155.237 345.759 171.843
C 342.471 172.518 338.844 172.179 335.5 172.207
C 328.834 172.262 322.166 172.239 315.5 172.237
C 296.898 172.233 278.255 172.653 259.66 172.24
C 258.951 170.062 259.564 167.323 259.558 165.06
C 259.544 160.071 259.486 155.083 259.464 150.094
C 259.382 131.957 260.191 113.746 259.509 95.615 Z
M 264.525 139.622
C 264.944 146.018 264.655 152.584 264.589 158.996
C 264.561 161.741 264.242 164.564 264.561 167.305
C 267.799 166.999 271.245 167.304 274.507 167.312
C 280.841 167.327 287.174 167.303 293.508 167.304
C 309.276 167.308 325.116 166.818 340.874 167.151
C 341.438 165.28 340.957 162.464 340.949 160.5
C 340.93 155.833 340.886 151.167 340.868 146.5
C 340.823 135.335 340.849 124.169 340.824 113.004
C 340.817 109.671 340.808 106.339 340.79 103.007
C 340.783 101.613 341.151 99.664 340.79 98.349
C 321.873 98.619 302.921 98.254 283.999 98.281
C 279.167 98.289 274.336 98.309 269.504 98.345
C 268.331 98.354 265.532 97.87 264.699 98.711
C 264.449 108.124 264.67 117.577 264.633 126.995
C 264.617 131.076 265.132 135.591 264.525 139.622 Z"
opacity="1" fill="rgb(1,2,2)" fill-rule="evenodd" />
<path d="
M 259.49 190.113
C 259.549 189.473 259.593 188.831 259.628 188.188
C 268.388 187.214 277.681 187.969 286.503 187.967
C 306.201 187.961 325.948 188.416 345.637 187.996
C 346.256 194.053 345.749 200.408 345.737 206.498
C 345.715 217.498 345.761 228.498 345.729 239.498
C 345.708 246.498 345.742 253.498 345.754 260.497
C 345.76 263.911 346.271 267.836 345.684 271.193
C 343.637 271.998 340.188 271.337 337.996 271.342
C 332.329 271.355 326.662 271.372 320.996 271.383
C 307.329 271.409 293.662 271.446 279.996 271.434
C 275.663 271.43 271.329 271.382 266.996 271.389
C 264.602 271.392 262.024 271.691 259.67 271.245
C 258.89 268.963 259.601 265.591 259.59 263.173
C 259.565 257.36 259.391 251.553 259.412 245.741
C 259.478 227.245 258.736 208.59 259.49 190.113 Z
M 264.536 194.119
C 264.347 196.674 264.703 199.228 264.568 201.763
C 269.205 202.387 274.321 201.801 279.008 201.803
C 288.841 201.808 298.675 201.791 308.508 201.789
C 315.841 201.787 323.174 201.799 330.507 201.823
C 333.775 201.834 337.574 202.385 340.79 201.841
C 340.545 198.965 341.021 196.042 340.74 193.17
C 334.557 193.609 328.204 193.194 322.004 193.182
C 310.336 193.159 298.669 193.188 287.001 193.199
C 282.001 193.204 277 193.207 271.999 193.213
C 269.668 193.216 266.772 192.76 264.563 193.546
C 264.554 193.737 264.545 193.928 264.536 194.119 Z
M 264.521 213.122
C 263.628 230.805 265.296 248.596 264.628 266.285
C 283.057 266.951 301.564 266.317 320.006 266.432
C 325.006 266.463 330.007 266.451 335.007 266.442
C 336.365 266.439 339.676 267.024 340.774 266.346
C 340.541 262.441 340.871 258.419 340.856 254.501
C 340.796 238.674 341.617 222.62 340.804 206.821
C 334.921 207.16 328.901 206.814 323.003 206.824
C 309.835 206.847 296.667 206.784 283.5 206.79
C 278.834 206.793 274.166 206.759 269.501 206.815
C 268.268 206.829 265.437 206.328 264.626 207.29
C 264.654 209.169 264.818 211.268 264.521 213.122 Z"
opacity="1" fill="rgb(2,3,2)" fill-rule="evenodd" />
<path d="
M 275.954 141.84
C 277.59 141.113 279.925 141.765 281.689 141.551
C 282.318 147.335 281.621 153.37 281.877 159.199
C 279.879 159.232 277.878 159.184 275.881 159.157
C 275.229 153.526 276.05 147.512 275.954 141.84 Z"
opacity="1" fill="rgb(4,4,4)" fill-rule="evenodd" />
<path d="
M 275.825 241.838
C 277.48 241.05 279.738 241.525 281.548 241.348
C 281.86 242.649 281.601 244.169 281.619 245.506
C 281.673 249.763 281.179 254.437 281.84 258.642
C 279.852 258.729 277.856 258.579 275.87 258.517
C 275.18 253.195 275.699 247.208 275.825 241.838 Z"
opacity="1" fill="rgb(5,5,4)" fill-rule="evenodd" />
<path d="
M 276.615 487.645
C 280.651 487.447 284.739 487.705 288.783 487.69
C 290.725 487.683 293.185 487.178 295.053 487.714
C 294.986 488.867 294.934 490.696 295.263 491.784
C 290.604 491.745 285.943 491.604 281.283 491.763
C 281.284 493.338 280.666 496.472 281.407 497.862
C 285.261 497.497 289.661 497.532 293.52 497.844
C 293.675 498.749 293.234 500.883 293.725 501.548
C 289.623 501.951 285.446 501.315 281.333 501.716
C 281.259 503.236 280.602 506.258 281.555 507.484
C 286.132 507.5 290.695 507.678 295.278 507.481
C 295.225 508.737 295.207 510.181 295.37 511.425
C 290.935 511.245 286.454 511.505 282.012 511.442
C 280.444 511.419 278.076 511.787 276.652 511.135
C 276.351 503.322 276.726 495.465 276.615 487.645 Z"
opacity="1" fill="rgb(5,5,5)" fill-rule="evenodd" />
<path d="
M 291.934 224.34
C 293.4 223.614 295.969 224.195 297.606 224.098
C 297.953 227.666 297.648 231.41 297.662 235
C 297.691 242.937 297.618 250.876 297.668 258.811
C 295.836 258.872 293.993 258.727 292.16 258.741
C 291.686 258.095 291.929 256.862 291.95 256.086
C 292.012 253.891 292.069 251.699 292.071 249.502
C 292.077 241.111 291.94 232.728 291.934 224.34 Z"
opacity="1" fill="rgb(4,3,3)" fill-rule="evenodd" />
<path d="
M 292.093 125.102
C 293.924 124.892 295.756 125.018 297.587 124.852
C 297.938 125.551 297.674 126.72 297.671 127.496
C 297.661 129.665 297.667 131.834 297.682 134.003
C 297.721 139.502 297.739 145.001 297.732 150.5
C 297.729 153.313 297.312 156.535 297.837 159.299
C 295.948 159.281 294.033 159.369 292.153 159.204
C 291.559 147.877 292.447 136.446 292.093 125.102 Z"
opacity="1" fill="rgb(3,3,2)" fill-rule="evenodd" />
<path d="
M 300.874 449.053
C 301.672 446.631 304.326 443.61 306.934 443.128
C 307.153 442.931 306.075 442.268 305.913 442.107
C 305.225 441.426 304.687 440.418 304.453 439.483
C 303.616 436.147 304.831 432.649 308.034 431.138
C 313.365 428.624 321.914 431.085 320.475 438.256
C 319.871 441.267 317.418 442.867 315.117 444.561
C 316.383 445.684 317.48 446.978 318.677 448.173
C 319.171 448.667 319.725 449.473 320.445 449.544
C 322.368 447.34 323.19 446.431 326.177 446.144
C 326.301 447.438 326.339 448.555 325.67 449.737
C 325.153 450.651 324.124 451.512 323.979 452.563
C 325.065 453.343 327.748 455.153 327.883 456.534
C 327.777 457.485 326.554 457.74 325.758 457.815
C 323.563 458.023 321.856 457.27 320.504 455.563
C 318.879 456.051 317.546 457.174 315.897 457.61
C 309.863 459.208 298.882 457.841 300.874 449.053 Z
M 305.881 450.106
C 305.817 455.81 313.866 454.569 316.835 452.358
C 316.754 451.799 315.556 450.986 315.129 450.562
C 313.732 449.173 311.969 446.955 310.149 446.165
C 308.119 446.685 306.243 447.942 305.881 450.106 Z
M 308.893 437.081
C 307.989 442.325 315.604 442.045 316.104 437.468
C 316.552 433.359 309.541 433.323 308.893 437.081 Z"
opacity="1" fill="rgb(3,4,3)" fill-rule="evenodd" />
<path d="
M 308.22 136.714
C 310.039 136.525 311.828 136.659 313.648 136.613
C 314.513 138.11 313.832 141.265 313.842 143.001
C 313.871 148.14 313.075 154.153 314.212 159.175
C 312.339 158.795 310.213 159.378 308.303 159.078
C 308.634 151.735 308.651 144.054 308.22 136.714 Z"
opacity="1" fill="rgb(5,5,5)" fill-rule="evenodd" />
<path d="
M 308.264 235.342
C 310.033 235.308 311.903 235.451 313.649 235.179
C 314.412 242.856 313.253 250.728 313.897 258.43
C 312.364 258.913 309.898 258.676 308.294 258.438
C 307.898 255.195 308.225 251.767 308.213 248.5
C 308.198 244.141 307.931 239.688 308.264 235.342 Z"
opacity="1" fill="rgb(5,5,4)" fill-rule="evenodd" />
<path d="
M 313.896 492.141
C 314.67 490.684 315.557 489.288 316.996 488.403
C 322.779 484.846 333.427 487.203 332.932 495.216
C 332.666 499.527 329.145 501.755 325.536 503.255
C 323.107 504.265 320.199 505.097 319.206 507.817
C 320.202 508.18 321.927 507.734 323.01 507.736
C 326.418 507.742 329.936 507.924 333.323 507.511
C 333.242 508.739 333.221 510.095 333.36 511.316
C 332.175 511.896 329.86 511.431 328.513 511.415
C 325.01 511.375 321.506 511.453 318.003 511.392
C 316.709 511.37 314.979 511.665 313.784 511.145
C 314.114 506.716 316.081 503.57 320.076 501.501
C 322.594 500.196 326.457 499.469 327.878 496.733
C 330.48 491.722 323.967 490.081 320.385 491.326
C 318.835 491.864 318.989 493.16 317.989 494.022
C 316.52 493.571 315.215 492.943 313.698 492.54
C 313.764 492.407 313.83 492.274 313.896 492.141 Z"
opacity="1" fill="rgb(5,5,4)" fill-rule="evenodd" />
<path d="
M 322.448 312.099
C 322.447 311.862 322.445 311.625 322.444 311.388
C 324.551 310.954 326.86 311.206 329.008 311.195
C 333.175 311.174 337.343 311.163 341.511 311.141
C 356.596 311.06 371.793 311.624 386.862 310.939
C 386.949 316.552 386.572 322.24 386.918 327.842
C 386.424 328.294 385.14 327.955 384.502 327.957
C 382.337 327.965 380.172 327.911 378.007 327.91
C 369.007 327.903 360.008 327.969 351.008 327.907
C 348.36 327.889 345.708 327.832 343.06 327.864
C 342.442 327.871 341.112 327.714 340.717 328.229
C 340.448 334.19 340.535 340.262 340.701 346.224
C 344.536 345.754 348.64 346.131 352.507 346.1
C 362.459 346.02 372.449 346.354 382.395 345.993
C 382.213 349.979 382.358 354.006 382.327 357.999
C 382.315 359.446 382.681 361.314 382.341 362.698
C 379.11 362.973 375.743 362.714 372.496 362.721
C 365.83 362.736 359.164 362.727 352.497 362.714
C 348.727 362.706 344.195 361.964 340.53 362.891
C 340.472 369.189 340.86 375.537 340.665 381.832
C 347.698 382.318 354.951 381.755 362.006 381.75
C 370.441 381.744 379.02 382.207 387.438 381.68
C 387.677 387.15 387.797 392.781 387.542 398.265
C 386.479 398.958 383.783 398.472 382.51 398.454
C 378.343 398.396 374.174 398.403 370.007 398.404
C 354.226 398.409 338.319 398.889 322.553 398.297
C 322.164 392.568 322.4 386.749 322.4 380.998
C 322.402 371.165 322.386 361.331 322.391 351.498
C 322.395 342.831 322.389 334.164 322.397 325.497
C 322.402 321.071 322.082 316.508 322.448 312.099 Z"
opacity="1" fill="rgb(0,0,0)" fill-rule="evenodd" />
<path d="
M 324.473 215.585
C 324.556 215.121 324.582 214.725 324.733 214.272
C 326.421 214.297 328.19 214.253 329.869 214.071
C 330.463 217.67 329.94 221.837 329.945 225.498
C 329.956 232.668 330.052 239.837 330.054 247.007
C 330.056 250.847 329.7 254.787 330.046 258.603
C 328.737 259.051 325.753 258.944 324.391 258.6
C 324.407 249.068 324.395 239.53 324.411 229.996
C 324.418 225.238 324.068 220.323 324.473 215.585 Z"
opacity="1" fill="rgb(3,3,4)" fill-rule="evenodd" />
<path d="
M 324.719 107.719
C 326.416 107.637 328.356 107.266 330.004 107.782
C 330.266 124.879 329.059 142.221 330.157 159.306
C 328.521 159.162 326.156 159.821 324.677 159.185
C 324.278 142.055 324.542 124.854 324.719 107.719 Z"
opacity="1" fill="rgb(2,2,2)" fill-rule="evenodd" />
<path d="
M 339.935 495.589
C 341.353 487.603 351.489 484.225 357.859 489.15
C 361.806 492.202 362.534 498.717 361.555 503.308
C 361.037 505.737 360.156 508.084 358.217 509.749
C 354.307 513.106 346.907 513.058 343.139 509.533
C 339.443 506.075 339.105 500.267 339.935 495.589 Z
M 343.987 498.62
C 343.872 501.566 344.478 504.94 346.799 506.966
C 349.226 509.084 353.641 508.785 355.586 506.167
C 356.764 504.581 357.121 502.508 357.215 500.579
C 357.35 497.843 357.077 494.241 354.861 492.305
C 352.249 490.024 347.664 490.519 345.561 493.229
C 344.376 494.756 344.06 496.73 343.987 498.62 Z"
opacity="1" fill="rgb(3,3,3)" fill-rule="evenodd" />
<path d="
M 344.297 456.988
C 348.56 448.564 351.471 439.433 355.478 430.886
C 357.274 430.304 360.126 430.601 361.996 430.831
C 364.394 436.471 366.892 442.095 369.25 447.763
C 370.606 451.021 371.765 455.062 373.849 457.922
C 373.682 458.116 372.692 457.895 372.474 457.894
C 370.944 457.888 369.425 458.075 367.898 458.091
C 367.087 456.449 366.718 454.318 365.572 452.878
C 361.296 452.552 356.228 452.178 351.989 452.836
C 351.242 454.234 350.953 456.626 349.867 457.729
C 348.86 457.944 344.704 458.202 344.17 457.401
C 344.212 457.263 344.254 457.126 344.297 456.988 Z
M 353.845 447.526
C 353.591 448.184 353.711 447.829 353.5 448.596
C 357.025 448.739 360.782 448.213 364.269 448.729
C 362.831 445.661 361.695 442.44 360.297 439.348
C 359.801 438.253 359.447 436.652 358.533 435.854
C 357.252 439.789 355.456 443.712 353.845 447.526 Z"
opacity="1" fill="rgb(5,5,5)" fill-rule="evenodd" />
<path d="
M 360.797 94.383
C 361.798 93.257 364.59 93.774 366.008 93.765
C 371.174 93.731 376.34 93.725 381.506 93.699
C 401.955 93.6 422.435 93.944 442.879 93.551
C 442.639 100.527 442.789 107.518 442.733 114.497
C 442.72 116.157 442.762 117.831 442.693 119.488
C 442.679 119.807 442.807 120.765 442.477 120.879
C 415.372 121.416 388.154 121.638 361.044 121.298
C 360.695 120.86 360.82 120.062 360.813 119.51
C 360.79 117.842 360.788 116.175 360.779 114.507
C 360.746 107.862 360.275 101.005 360.797 94.383 Z
M 366.498 99.013
C 366.382 99.058 366.266 99.102 366.151 99.147
C 365.958 102.583 366.104 106.056 366.115 109.497
C 366.121 111.606 365.844 113.908 366.231 115.983
C 375.783 115.615 385.434 115.973 395.003 115.945
C 409.208 115.904 423.432 115.613 437.632 115.756
C 437.66 111.839 437.725 107.921 437.745 104.004
C 437.753 102.568 438.249 100.261 437.704 98.945
C 423.496 98.48 409.22 98.901 395.004 98.885
C 385.626 98.874 375.827 98.114 366.498 99.013 Z"
opacity="1" fill="rgb(1,2,2)" fill-rule="evenodd" />
<path d="
M 360.778 131.271
C 366.338 131.026 371.938 131.262 377.505 131.237
C 379.949 131.225 382.908 130.6 385.292 131.076
C 385.252 132.686 385.065 134.621 385.328 136.206
C 381.578 136.053 377.76 136.236 374 136.242
C 371.377 136.247 368.593 135.97 366.008 136.45
C 365.338 138.963 365.718 141.908 365.714 144.498
C 365.705 149.498 365.683 154.498 365.686 159.498
C 365.687 161.329 365.713 163.162 365.689 164.993
C 365.68 165.701 365.534 166.829 365.897 167.414
C 373.06 167.067 380.333 167.416 387.506 167.434
C 395.043 167.454 402.703 167.157 410.221 167.673
C 410.946 168.464 410.347 171.312 410.27 172.357
C 405.121 173.083 399.444 172.536 394.235 172.56
C 383.161 172.61 372.072 172.566 360.999 172.395
C 360.444 171.736 360.688 170.346 360.685 169.504
C 360.678 167.003 360.683 164.502 360.684 162.001
C 360.686 151.824 360.016 141.418 360.778 131.271 Z"
opacity="1" fill="rgb(2,3,3)" fill-rule="evenodd" />
<path d="
M 360.901 192.821
C 367.96 192.059 375.407 192.712 382.509 192.731
C 395.842 192.767 409.175 192.739 422.509 192.756
C 427.509 192.762 432.509 192.791 437.509 192.81
C 438.683 192.814 442.05 192.244 442.879 193.004
C 443.04 199.66 442.756 206.337 442.751 212.997
C 442.75 215.498 442.453 218.182 442.725 220.66
C 436.027 221.073 429.212 220.774 422.5 220.794
C 409.364 220.832 396.185 221.254 383.056 221.046
C 375.733 220.931 368.294 220.64 360.977 220.941
C 360.251 217.692 360.772 213.831 360.768 210.508
C 360.759 204.673 360.319 198.626 360.901 192.821 Z
M 365.984 200.614
C 365.71 205.582 365.718 210.766 366.006 215.731
C 374.486 214.863 383.472 215.633 392.004 215.619
C 407.234 215.593 422.492 215.356 437.719 215.628
C 437.862 209.807 437.59 203.962 437.734 198.147
C 435.433 197.467 432.39 197.959 430.007 197.962
C 425.172 197.967 420.337 197.879 415.503 197.871
C 399.137 197.845 382.757 197.767 366.397 197.876
C 365.872 198.638 366.116 199.715 365.984 200.614 Z"
opacity="1" fill="rgb(2,3,3)" fill-rule="evenodd" />
<path d="
M 360.842 230.903
C 366.974 230.861 373.109 230.789 379.242 230.759
C 380.852 230.751 382.477 230.666 384.084 230.721
C 384.404 230.731 385.162 230.535 385.317 230.779
C 385.204 231.862 385.981 234.938 385.363 235.723
C 378.843 235.935 372.295 235.518 365.782 235.847
C 364.814 245.882 366.268 256.112 365.612 266.16
C 366.609 266.688 368.366 266.336 369.503 266.341
C 372.338 266.355 375.173 266.345 378.007 266.358
C 388.48 266.406 399.193 267.061 409.641 266.284
C 410.393 267.533 409.759 270.044 409.894 271.487
C 409.729 271.789 407.343 271.54 406.923 271.523
C 403.95 271.405 400.971 271.462 397.996 271.455
C 385.643 271.423 373.288 271.412 360.935 271.445
C 360.412 270.704 360.666 269.394 360.668 268.503
C 360.673 266.169 360.67 263.835 360.679 261.501
C 360.704 254.502 360.714 247.503 360.652 240.504
C 360.628 237.709 359.778 233.505 360.842 230.903 Z"
opacity="1" fill="rgb(2,2,2)" fill-rule="evenodd" />
<path d="
M 368.338 491.485
C 372.165 484.371 387.954 485.362 387.201 495.028
C 386.877 499.188 382.902 501.926 379.369 503.387
C 377.377 504.211 374.12 505.313 373.332 507.528
C 374.863 507.883 376.807 507.594 378.4 507.577
C 381.28 507.546 384.37 507.916 387.205 507.293
C 387.271 508.599 387.241 509.914 387.32 511.216
C 381.045 511.122 374.707 511.256 368.43 511.383
C 367.488 510.103 368.868 506.177 369.734 505.101
C 371.697 502.663 374.45 501.454 377.248 500.233
C 379.262 499.353 381.69 498.135 382.252 495.803
C 383.745 489.606 373.189 488.99 372.257 494.307
C 371.316 494.57 368.864 493.361 368.073 492.798
C 368.153 491.928 368.07 492.367 368.338 491.485 Z"
opacity="1" fill="rgb(5,5,5)" fill-rule="evenodd" />
<path d="
M 374.376 146.816
C 376.305 146.268 378.487 146.457 380.478 146.441
C 385.369 146.402 390.614 146.958 395.46 146.281
C 395.363 148.151 395.38 150.058 395.386 151.932
C 388.546 151.566 381.347 151.512 374.507 151.856
C 373.773 150.889 374.392 148.029 374.376 146.816 Z"
opacity="1" fill="rgb(5,6,5)" fill-rule="evenodd" />
<path d="
M 374.486 247.09
C 374.509 246.912 374.531 246.734 374.554 246.556
C 376.126 245.527 378.655 245.992 380.505 245.977
C 385.471 245.939 390.515 245.667 395.474 245.847
C 395.328 247.559 395.208 249.578 395.378 251.288
C 388.558 251.077 381.319 252.05 374.566 251.085
C 374.532 249.749 374.425 248.424 374.486 247.09 Z"
opacity="1" fill="rgb(2,4,2)" fill-rule="evenodd" />
<path d="
M 379.082 430.624
C 382.54 430.398 386.041 430.628 389.506 430.651
C 392.736 430.673 396.136 430.483 399.056 432.074
C 407.099 436.457 407.689 450.805 399.909 455.785
C 394.162 459.464 385.953 457.671 379.459 457.926
C 378.939 457.534 379.136 456.577 379.154 455.959
C 379.201 454.306 379.243 452.659 379.238 451.005
C 379.218 444.212 379.05 437.416 379.082 430.624 Z
M 384.303 435.275
C 384.42 441.224 384.297 447.217 384.289 453.169
C 385.249 453.473 386.499 453.319 387.505 453.341
C 390.41 453.407 394.181 453.868 396.713 452.127
C 401.251 449.006 401.613 440.315 397.28 436.917
C 393.943 434.3 388.251 435.159 384.303 435.275 Z"
opacity="1" fill="rgb(2,3,3)" fill-rule="evenodd" />
<path d="
M 393.566 505.701
C 394.596 505.733 395.903 505.605 396.899 505.968
C 397.868 506.32 398.547 507.19 399.482 507.61
C 401.309 508.431 403.724 508.479 405.634 507.948
C 409.756 506.801 411.164 501.997 406.829 499.891
C 405.025 499.015 402.304 499.089 400.449 499.752
C 398.775 500.35 396.938 501.567 395.181 500.154
C 395.213 496.005 395.812 491.878 395.72 487.717
C 401.356 487.324 407.131 487.767 412.79 487.647
C 412.711 488.918 412.723 490.305 412.83 491.57
C 412.128 492.064 410.076 491.663 409.222 491.665
C 406.086 491.675 402.952 491.702 399.825 491.827
C 399.691 493.562 399.644 495.29 399.411 497.013
C 401.533 496.221 403.254 495.655 405.572 495.696
C 411.914 495.807 416.746 502.457 412.893 508.26
C 409.7 513.069 400.153 513.233 395.924 509.792
C 394.622 508.732 394.209 507.169 393.566 505.701 Z"
opacity="1" fill="rgb(5,6,5)" fill-rule="evenodd" />
<path d="
M 394.487 132.094
C 394.571 131.551 394.513 131.889 394.688 131.085
C 398.307 131.131 402.008 131.178 405.613 130.813
C 406.133 131.734 405.799 133.716 405.76 134.746
C 405.748 135.048 405.84 135.781 405.569 135.992
C 402.045 135.89 398.435 135.812 394.913 135.999
C 394.195 135.055 394.439 133.248 394.487 132.094 Z"
opacity="1" fill="rgb(5,7,5)" fill-rule="evenodd" />
<path d="
M 394.728 230.744
C 398.567 230.621 402.431 230.952 406.266 230.704
C 406.329 231.855 406.371 233.028 406.304 234.178
C 406.291 234.392 406.349 235.405 406.183 235.478
C 402.585 235.198 398.562 236.025 395.049 235.276
C 394.932 233.772 394.875 232.25 394.728 230.744 Z"
opacity="1" fill="rgb(5,5,3)" fill-rule="evenodd" />
<path d="
M 399.936 348.108
C 401.602 338.569 404.848 329.647 411.793 322.594
C 430.384 303.713 465.165 306.945 481.584 326.993
C 481.561 327.965 479.562 329.412 478.884 330.154
C 476.62 332.634 474.23 334.988 471.918 337.421
C 471.233 338.14 470.148 339.755 469.122 339.91
C 464.814 335.313 460.122 331.345 454.098 329.221
C 450.144 327.827 445.93 327.323 441.753 327.619
C 435.52 328.061 429.51 330.483 425.162 335.043
C 416.799 343.813 415.967 359.567 421.459 369.979
C 423.997 374.791 428.362 378.296 433.266 380.479
C 436.523 381.928 440.355 382.659 443.917 382.692
C 448.452 382.734 452.787 381.772 456.907 379.885
C 461.957 377.573 466.219 373.691 469.543 369.295
C 470.468 369.665 471.445 371.118 472.173 371.839
C 474.462 374.107 476.775 376.355 479.117 378.569
C 479.839 379.251 482.151 380.567 482.273 381.45
C 481.643 382.748 480.362 383.848 479.387 384.892
C 476.957 387.496 474.346 389.914 471.414 391.944
C 455.652 402.857 431.726 402.331 416.224 391.24
C 402.7 381.564 397.968 363.986 399.936 348.108 Z"
opacity="1" fill="rgb(0,0,0)" fill-rule="evenodd" />
<path d="
M 408.25 430.796
C 409.735 430.675 411.205 430.702 412.692 430.698
C 413.217 430.697 414.088 430.58 414.446 430.943
C 415.682 435.077 417.614 439.07 419.167 443.099
C 420.301 446.042 421.31 449.717 423.126 452.299
C 424.449 451.177 425.021 448.106 425.706 446.524
C 427.92 441.409 429.658 436.127 431.531 430.891
C 432.408 430.08 436.352 430.682 437.571 430.823
C 435.346 436.634 432.806 442.346 430.566 448.165
C 429.718 450.367 428.807 452.546 427.967 454.75
C 427.604 455.702 427.412 456.929 426.809 457.757
C 424.315 458.058 421.773 457.616 419.27 457.825
C 418.669 457.132 418.59 455.994 418.299 455.126
C 417.687 453.298 416.869 451.524 416.169 449.727
C 413.734 443.471 411.472 436.683 408.25 430.796 Z"
opacity="1" fill="rgb(5,6,6)" fill-rule="evenodd" />
<path d="
M 418.88 168.603
C 418.855 168.352 418.83 168.101 418.805 167.85
C 421.269 167.645 423.787 167.673 426.262 167.638
C 427.428 167.622 428.925 167.381 430.007 167.798
C 429.962 169.22 430.575 171.129 429.817 172.435
C 426.404 172.314 422.916 172.441 419.495 172.451
C 418.625 171.689 418.872 169.702 418.88 168.603 Z"
opacity="1" fill="rgb(1,3,2)" fill-rule="evenodd" />
<path d="
M 418.676 266.715
C 422.312 266.367 426.019 266.931 429.646 266.571
C 429.78 268.194 429.694 269.816 429.779 271.441
C 429.802 271.705 429.006 271.468 428.842 271.454
C 428.375 271.414 427.955 271.543 427.494 271.57
C 424.707 271.735 421.794 271.389 418.99 271.397
C 418.221 270.541 418.777 267.86 418.676 266.715 Z"
opacity="1" fill="rgb(12,13,11)" fill-rule="evenodd" />
<path d="
M 423.081 104.656
C 425.286 104.598 427.485 104.655 429.689 104.626
C 430.083 106.127 429.791 107.887 429.842 109.437
C 427.931 109.434 424.922 109.923 423.15 109.296
C 423.121 107.75 423.21 106.196 423.081 104.656 Z"
opacity="1" fill="rgb(10,8,8)" fill-rule="evenodd" />
<path d="
M 423.135 204.149
C 425.274 204.27 427.414 204.115 429.553 204.173
C 429.444 205.903 429.43 207.897 429.571 209.625
C 427.649 209.973 425.418 209.496 423.46 209.454
C 422.715 208.96 422.968 205.03 423.135 204.149 Z"
opacity="1" fill="rgb(3,5,2)" fill-rule="evenodd" />
<path d="
M 432.078 248.161
C 434.794 248.217 437.512 248.319 440.232 248.271
C 439.968 245.504 440.355 242.638 440.228 239.853
C 441.267 239.873 444.623 239.313 445.34 239.914
C 445.338 242.64 445.539 245.452 445.266 248.163
C 446.742 248.774 449.577 248.28 451.177 248.169
C 451.781 248.127 452.951 247.907 453.406 248.297
C 453.29 249.963 453.272 251.826 453.435 253.496
C 453.416 253.537 453.397 253.578 453.379 253.618
C 451.607 253.76 449.682 253.572 447.872 253.618
C 447.138 253.637 446.032 253.448 445.469 253.9
C 445.401 256.521 445.068 259.289 445.338 261.898
C 443.706 262.086 441.86 261.755 440.215 261.649
C 440.212 258.98 440.21 256.309 440.172 253.645
C 437.742 253.135 434.915 253.359 432.44 253.455
C 431.655 252.633 432.146 249.357 432.078 248.161 Z"
opacity="1" fill="rgb(2,3,2)" fill-rule="evenodd" />
<path d="
M 442.425 430.808
C 444.165 430.718 445.901 430.819 447.639 430.747
C 448.036 431.343 447.817 432.483 447.806 433.173
C 447.78 434.78 447.774 436.386 447.781 437.994
C 447.809 444.565 448.215 451.24 447.896 457.801
C 446.681 457.726 443.579 458.374 442.661 457.691
C 442.766 448.811 443.229 439.658 442.425 430.808 Z"
opacity="1" fill="rgb(4,5,5)" fill-rule="evenodd" />
<path d="
M 454.836 451.532
C 454.87 451.391 454.905 451.251 454.939 451.11
C 455.797 450.79 458.117 449.823 458.92 450.326
C 460.148 454.545 466.265 454.472 469.792 453.746
C 471.682 453.356 474.027 452.215 473.762 449.909
C 473.478 447.427 470.06 446.779 468.069 446.439
C 463.145 445.596 455.341 444.964 455.505 438.117
C 455.525 437.291 455.636 436.369 455.902 435.584
C 457.967 429.474 467.795 428.616 472.8 430.971
C 475.123 432.064 477.641 433.901 477.77 436.76
C 476.458 436.886 475.079 437.278 473.791 437.568
C 472.677 436.928 472.537 435.281 471.004 434.704
C 468.601 433.799 465.209 433.575 462.854 434.74
C 460.986 435.665 459.891 437.6 461.28 439.49
C 462.577 441.254 465.234 441.343 467.204 441.713
C 472.87 442.776 480.439 444.837 478.59 452.345
C 477.733 455.824 474.074 457.477 470.843 458.062
C 464.594 459.194 456.95 458.442 454.836 451.532 Z"
opacity="1" fill="rgb(4,4,4)" fill-rule="evenodd" />
<path d="
M 483.498 443.617
C 483.669 439.689 485.204 435.82 488.247 433.244
C 493.212 429.039 502.627 428.69 507.86 432.651
C 511.723 435.576 513.468 440.69 513.196 445.41
C 512.997 448.884 511.562 452.55 508.958 454.924
C 503.689 459.725 493.337 459.805 487.957 455.199
C 484.632 452.353 483.312 447.862 483.498 443.617 Z
M 488.909 441.575
C 488.076 445.039 488.746 449.571 491.623 451.927
C 496.8 456.168 506.101 453.973 507.706 447.251
C 508.534 443.785 508.027 439.134 505.119 436.735
C 499.774 432.324 490.574 434.655 488.909 441.575 Z"
opacity="1" fill="rgb(4,4,4)" fill-rule="evenodd" />
<path d="
M 496.302 311.236
C 498.817 310.879 501.406 311.097 503.941 311.042
C 507.339 310.968 510.87 310.661 514.254 311.011
C 514.282 319.17 514.252 327.337 514.252 335.5
C 514.252 337.83 514.29 340.163 514.238 342.493
C 514.219 343.378 514.015 344.658 514.427 345.439
C 519.319 344.845 524.58 345.338 529.509 345.343
C 537.349 345.351 545.259 345.113 553.089 345.441
C 553.406 345.32 553.226 343.862 553.232 343.507
C 553.266 341.508 553.259 339.508 553.263 337.509
C 553.281 328.761 553.664 319.902 553.15 311.168
C 559.23 311.13 565.341 311.089 571.428 310.992
C 571.082 329.811 571.337 348.669 571.331 367.493
C 571.328 374.327 571.33 381.16 571.322 387.993
C 571.318 391.412 571.004 395.007 571.323 398.403
C 565.459 398.205 559.277 398.044 553.425 398.455
C 552.639 394.915 553.25 390.634 553.247 387.01
C 553.241 378.837 553.502 370.571 553.108 362.411
C 543.285 361.827 533.343 362.393 523.506 362.381
C 521.203 362.378 518.901 362.383 516.599 362.401
C 516.044 362.406 514.56 362.209 514.294 362.736
C 514.133 369.985 514.265 377.25 514.263 384.502
C 514.262 389.066 513.965 393.74 514.276 398.292
C 510.208 398.503 506.068 398.259 501.994 398.233
C 500.322 398.222 497.878 398.686 496.32 398.114
C 496.641 383.26 496.316 368.362 496.35 353.503
C 496.383 339.44 496.78 325.29 496.302 311.236 Z"
opacity="1" fill="rgb(0,0,0)" fill-rule="evenodd" />
<path d="
M 520.19 430.671
C 522.48 430.429 524.794 430.534 527.095 430.526
C 532.665 430.506 542.006 429.314 543.324 436.74
C 543.504 437.756 543.644 438.902 543.571 439.934
C 543.432 441.866 542.877 443.783 541.629 445.289
C 541.131 445.888 539.318 446.785 539.234 447.369
C 540.3 447.883 541.671 448.568 542.227 449.691
C 543.263 451.783 542.597 455.545 542.913 457.868
C 541.165 457.736 539.381 457.692 537.63 457.748
C 537.175 455.402 538.034 452.735 536.639 450.57
C 535.815 449.291 534.396 449.275 533.025 449.215
C 530.607 449.11 528.185 449.183 525.768 449.098
C 524.933 451.483 525.134 455.369 525.405 457.897
C 523.76 457.919 522.092 457.761 520.451 457.915
C 520.153 455.17 520.406 452.264 520.402 449.501
C 520.395 443.227 520.45 436.94 520.19 430.671 Z
M 525.458 435.314
C 525.315 438.433 525.381 441.548 525.369 444.669
C 528.598 444.641 533.195 445.48 536.199 444.083
C 539.272 442.655 539.61 437.204 536.444 435.668
C 533.453 434.216 528.655 435.245 525.458 435.314 Z"
opacity="1" fill="rgb(4,4,4)" fill-rule="evenodd" />
<path d="
M 546.594 430.832
C 548.911 430.713 551.218 430.864 553.535 430.799
C 556.448 434.825 559.123 439.541 561.611 443.841
C 562.542 443.487 563.325 441.292 563.826 440.474
C 565.794 437.264 567.642 433.751 569.91 430.759
C 571.84 430.615 573.859 430.578 575.79 430.68
C 575.823 431.419 574.973 432.375 574.583 432.958
C 573.492 434.591 572.347 436.183 571.289 437.84
C 569.753 440.246 568.202 442.652 566.619 445.028
C 565.92 446.078 564.78 447.295 564.361 448.488
C 564.069 449.321 564.224 450.417 564.215 451.286
C 564.195 453.335 563.918 455.783 564.315 457.786
C 562.677 457.798 560.687 458.074 559.094 457.693
C 559.09 455.685 558.955 453.686 558.951 451.677
C 558.948 450.647 559.158 449.407 558.833 448.418
C 558.255 446.653 556.545 444.922 555.509 443.387
C 553.571 440.516 551.76 437.541 549.732 434.734
C 548.759 433.386 547.491 432.206 546.594 430.832 Z"
opacity="1" fill="rgb(4,6,5)" fill-rule="evenodd" />

</svg>